<svg xmlns="http://www.w3.org/2000/svg" viewBox="0 0 143.1 58.73"><defs><style>.cls-1{fill:#42546c;}.cls-2{fill:#febe10;}</style></defs><g id="Layer_2" data-name="Layer 2"><g id="Layer_1-2" data-name="Layer 1"><path class="cls-1" d="M57.35,21.63c.8-.79,1.54-1.49,2.25-2.21L70.1,8.59c.35-.37,1-.74.76-1.28S70,7,69.45,6.9s-1.09-.08-1.64-.08c-.35,0-.44-.14-.44-.46,0-1.12,0-2.23,0-3.35,0-.42.18-.5.55-.5H81.44c.35,0,.5.09.49.47,0,1.12,0,2.23,0,3.34,0,.43-.15.53-.53.5s-.57,0-.85,0a5.55,5.55,0,0,0-4.25,2c-3.24,3.37-6.54,6.69-9.83,10-.35.36-.44.54,0,1a63.66,63.66,0,0,1,9.35,12.6,31.78,31.78,0,0,1,2.29,5,4.13,4.13,0,0,0,3.81,3.08c.43,0,.59.15.57.61,0,1.07,0,2.14,0,3.21,0,.4-.1.53-.52.53q-7,0-14.1,0c-.43,0-.51-.17-.5-.54,0-1.09,0-2.19,0-3.28,0-.42.15-.51.53-.51a10.8,10.8,0,0,0,2.54-.27,1.58,1.58,0,0,0,1.25-2.45,29.93,29.93,0,0,0-2.46-4.69,57.28,57.28,0,0,0-7-8.87c-.29-.3-.44-.34-.75,0-1.23,1.32-2.5,2.63-3.76,3.93a.9.9,0,0,0-.28.69c0,3,0,6,0,9.05a2.13,2.13,0,0,0,2,2.42,12.21,12.21,0,0,0,1.82.2c.35,0,.5.09.5.48,0,1.11,0,2.23,0,3.34,0,.42-.17.51-.55.51q-7.05,0-14.11,0c-.42,0-.57-.11-.56-.55q0-1.57,0-3.15c0-.47.09-.65.6-.64a7.79,7.79,0,0,0,2.15-.23,1.72,1.72,0,0,0,1.5-1.79q0-.53,0-1.05v-28c0-1.74-.55-2.29-2.28-2.48A11.61,11.61,0,0,0,47,6.83c-.42,0-.57-.11-.56-.55,0-1.09,0-2.18,0-3.28,0-.36.1-.5.48-.5H61.16c.37,0,.5.12.49.49,0,1.11,0,2.23,0,3.34,0,.38-.13.47-.5.49a12.81,12.81,0,0,0-1.95.23,2.08,2.08,0,0,0-1.85,2.19c0,.24,0,.48,0,.72V21.63Z"/><path class="cls-1" d="M119.11,20.31l1.35-1.9A7.61,7.61,0,0,1,127.18,15a10.87,10.87,0,0,1,7.51,2.75,12.29,12.29,0,0,1,3.4,6.17,22.34,22.34,0,0,1,.68,5.7q0,3.71,0,7.41a2.76,2.76,0,0,0,2.44,3.12,8.91,8.91,0,0,0,.9.16c1,.11,1,.1,1,1.06s0,1.79,0,2.69c0,.5-.14.61-.62.6-3.22,0-6.43,0-9.65,0-.52,0-.65-.14-.65-.65q0-7.32,0-14.62a16.26,16.26,0,0,0-.65-5.05,4.6,4.6,0,0,0-6.12-3.24,8.8,8.8,0,0,0-6.22,7.73c-.18,2.86-.07,5.73-.07,8.59a2.72,2.72,0,0,0,2.56,2.75,7.48,7.48,0,0,0,1.24.14c.35,0,.51.09.5.48,0,1.13,0,2.27,0,3.41,0,.33-.1.45-.45.45q-7.16,0-14.3,0c-.4,0-.47-.16-.47-.5,0-1.12,0-2.23,0-3.35,0-.37.12-.49.49-.48a5.61,5.61,0,0,0,2.18-.39,2.38,2.38,0,0,0,1.64-2.36c0-5.07,0-10.14,0-15.21A2.37,2.37,0,0,0,110.82,20a5.48,5.48,0,0,0-2.12-.37c-.36,0-.51-.12-.5-.49,0-1.14,0-2.28,0-3.41,0-.36.15-.43.47-.43,3.11,0,6.21,0,9.32,0,.48,0,.46.29.5.58C118.7,17.31,118.89,18.74,119.11,20.31Z"/><path class="cls-1" d="M99,27c0,3.5,0,7,0,10.49,0,1.85.68,2.63,2.51,2.87a9.5,9.5,0,0,0,1.3.11c.36,0,.51.09.5.48,0,1.11,0,2.23,0,3.34,0,.42-.17.51-.55.51q-7.08,0-14.17,0c-.42,0-.5-.16-.5-.54,0-1.09,0-2.19,0-3.28,0-.41.13-.5.52-.51a7,7,0,0,0,2.32-.37,2,2,0,0,0,1.4-1.8c0-.26,0-.52,0-.78V22.72a4.59,4.59,0,0,0-.13-1.23c-.35-1.29-1.45-1.5-2.55-1.69a2.11,2.11,0,0,0-.26,0c-1.33-.07-1.33-.07-1.33-1.37,0-.81,0-1.62,0-2.43,0-.42.11-.56.55-.56,3.25,0,6.51,0,9.77,0,.53,0,.6.19.59.65C99,19.72,99,23.36,99,27Z"/><path class="cls-1" d="M29,52.94c0,.83,0,1.66,0,2.49a.62.62,0,0,1-.42.65q-2.76,1.26-5.51,2.56a.86.86,0,0,1-.81,0c-1.78-.86-3.58-1.72-5.37-2.56a.64.64,0,0,1-.45-.68c0-1.64,0-3.28,0-4.91a.7.7,0,0,1,.48-.74q2.71-1.23,5.4-2.51a.88.88,0,0,1,.86,0c1.78.86,3.57,1.72,5.37,2.56a.68.68,0,0,1,.46.74c0,.81,0,1.62,0,2.42Z"/><path class="cls-1" d="M29,5.83c0,.81,0,1.62,0,2.43a.64.64,0,0,1-.43.7c-1.83.83-3.64,1.68-5.46,2.54a.88.88,0,0,1-.86,0c-1.77-.86-3.54-1.71-5.32-2.53a.73.73,0,0,1-.49-.8c0-1.59,0-3.19,0-4.78A.73.73,0,0,1,17,2.59Q19.62,1.38,22.25.12a1.1,1.1,0,0,1,1,0C25,1,26.75,1.82,28.5,2.62a.76.76,0,0,1,.51.85c0,.79,0,1.57,0,2.36Z"/><path class="cls-1" d="M29,29.38c0,.83,0,1.66,0,2.49a.62.62,0,0,1-.42.65c-1.86.85-3.72,1.72-5.57,2.59a.71.71,0,0,1-.68,0c-1.82-.88-3.65-1.76-5.49-2.62a.61.61,0,0,1-.4-.65q0-2.49,0-5a.6.6,0,0,1,.41-.64c1.87-.85,3.72-1.72,5.58-2.59a.69.69,0,0,1,.67,0Q25.86,25,28.6,26.24a.61.61,0,0,1,.41.65c0,.83,0,1.66,0,2.49Z"/><path class="cls-1" d="M45.41,29.41c0,.81,0,1.62,0,2.42a.63.63,0,0,1-.43.7q-2.77,1.26-5.53,2.57a.69.69,0,0,1-.67,0Q36,33.77,33.27,32.48a.66.66,0,0,1-.42-.71c0-1.66.06-3.32.07-5a.57.57,0,0,1,.38-.6q2.78-1.28,5.52-2.57a.78.78,0,0,1,.74,0c1.83.88,3.66,1.76,5.5,2.62a.56.56,0,0,1,.37.6c0,.85,0,1.71,0,2.56Z"/><path class="cls-2" d="M24.69,17.53c0-.83,0-1.66,0-2.49a.6.6,0,0,1,.41-.65c1.87-.85,3.73-1.72,5.58-2.59a.69.69,0,0,1,.67,0c1.82.86,3.63,1.73,5.45,2.58a.67.67,0,0,1,.47.75c-.16,1.61-.07,3.23-.08,4.84a.76.76,0,0,1-.51.8Q34,22,31.27,23.32a.81.81,0,0,1-.74,0Q27.82,22,25.09,20.72a.65.65,0,0,1-.43-.7c0-.83,0-1.66,0-2.49Z"/><path class="cls-1" d="M12.51,29.4c0,.83,0,1.66,0,2.49a.59.59,0,0,1-.41.64Q9.38,33.76,6.69,35a.94.94,0,0,1-.92,0C4,34.17,2.19,33.31.39,32.47A.61.61,0,0,1,0,31.81c0-1.66,0-3.32,0-5a.6.6,0,0,1,.41-.64Q3.19,24.93,6,23.62a.76.76,0,0,1,.73,0c1.81.87,3.63,1.74,5.44,2.59a.65.65,0,0,1,.46.69c0,.83,0,1.66,0,2.49Z"/><path class="cls-1" d="M20.74,41.16c0,.8,0,1.61,0,2.42a.67.67,0,0,1-.45.74q-2.75,1.24-5.47,2.54a.8.8,0,0,1-.79,0L8.66,44.27a.6.6,0,0,1-.43-.63c0-1.69,0-3.37,0-5A.58.58,0,0,1,8.68,38q2.77-1.27,5.52-2.57a.67.67,0,0,1,.67,0q2.74,1.32,5.5,2.61a.61.61,0,0,1,.4.66c0,.83,0,1.66,0,2.49Z"/><path class="cls-1" d="M37.17,41.2c0,.78,0,1.57,0,2.35a.69.69,0,0,1-.48.79Q34,45.55,31.35,46.82a1,1,0,0,1-.93,0c-1.76-.86-3.54-1.7-5.31-2.53a.66.66,0,0,1-.45-.7c0-1.66,0-3.31,0-5a.59.59,0,0,1,.41-.64c1.83-.83,3.64-1.68,5.46-2.54a.86.86,0,0,1,.85,0c1.75.85,3.5,1.69,5.26,2.5a.81.81,0,0,1,.54.9c0,.78,0,1.57,0,2.36Z"/><path class="cls-1" d="M8.26,17.48c0-.74.05-1.49,0-2.22a.86.86,0,0,1,.63-1c1.72-.77,3.41-1.56,5.11-2.36a1.07,1.07,0,0,1,1,0q2.63,1.29,5.26,2.5a.7.7,0,0,1,.48.74c0,1.64,0,3.28,0,4.92a.62.62,0,0,1-.44.68c-1.81.82-3.6,1.66-5.4,2.51a.92.92,0,0,1-.91,0c-1.72-.84-3.45-1.67-5.2-2.47a.83.83,0,0,1-.57-.94c0-.78,0-1.57,0-2.36Z"/><path class="cls-2" d="M89.4,7.5a7.61,7.61,0,0,0,0-1.17,1.41,1.41,0,0,1,1-1.71C91.64,4.17,92.79,3.57,94,3a.9.9,0,0,1,.86,0Q96.88,4,99,5a.64.64,0,0,1,.42.66c0,1.24,0,2.49,0,3.73a.66.66,0,0,1-.47.69L94.8,12a.94.94,0,0,1-.88,0c-1.35-.65-2.71-1.3-4.08-1.92a.68.68,0,0,1-.45-.76c0-.59,0-1.18,0-1.77Z"/><path class="cls-1" d="M56.07,55.25V50.17c0-.28,0-.57,0-.85s.1-.37.38-.39c1.3-.12,1.3-.13,1.3,1.17,0,2.47,0,4.93,0,7.4,0,.3.25.82-.22.89S56.44,58.61,56,58c-1.13-1.56-2.34-3-3.52-4.57-.39-.51-.79-1-1.21-1.54a1,1,0,0,0-.12.69c0,1.73,0,3.45,0,5.18,0,.56-.17.75-.71.67h-.39c-.46.07-.59-.12-.58-.58,0-2.79,0-5.59,0-8.38,0-.45.15-.52.56-.55a1.57,1.57,0,0,1,1.57.76c1.4,1.89,2.87,3.74,4.31,5.6Z"/><path class="cls-1" d="M72.71,58.35l-.12.06c-1.55.12-1.6.14-2.14-1.34a1.22,1.22,0,0,0-1.47-1,18,18,0,0,1-2.75,0,.8.8,0,0,0-.94.65,4.19,4.19,0,0,1-.2.49c-.56,1.35-.58,1.36-2.18,1.12.61-1.41,1.21-2.8,1.82-4.19.69-1.58,1.4-3.15,2.06-4.74.17-.39.35-.62.81-.55s.94-.19,1.23.5c1.2,2.86,2.47,5.68,3.71,8.52C72.6,58,72.64,58.18,72.71,58.35Zm-6.54-3.69H69c.24,0,.39-.06.27-.33-.48-1.11-1-2.21-1.49-3.45Z"/><path class="cls-1" d="M43.28,58.43c-.57.2-.8-.19-1-.75-.62-1.57-.64-1.56-2.34-1.56-.77,0-1.53,0-2.3,0a.58.58,0,0,0-.67.46c-.1.31-.25.6-.38.9-.42,1-.69,1.13-1.77,1-.42-.07-.23-.27-.15-.46l1.51-3.48c.74-1.69,1.5-3.38,2.21-5.09a.76.76,0,0,1,.9-.53c.45,0,.89-.11,1.16.52,1.14,2.74,2.35,5.44,3.54,8.16C44.36,58.43,44.36,58.43,43.28,58.43Zm-3.91-7.56-1.6,3.75H41Z"/><path class="cls-1" d="M139.37,48.78a5.81,5.81,0,0,1,3,.88c.37.24.42.45.13.76a2.08,2.08,0,0,0-.3.43c-.18.32-.37.35-.68.15a3.82,3.82,0,0,0-2.27-.71c-.8,0-1.31.36-1.41.92s.16,1.06,1,1.35,1.6.44,2.38.73A2.43,2.43,0,0,1,143.08,56a2.71,2.71,0,0,1-2.26,2.47,5.75,5.75,0,0,1-4.65-1.05c-.35-.26-.4-.47-.07-.77a2.38,2.38,0,0,0,.38-.45c.19-.29.35-.28.62-.06a4,4,0,0,0,3,.94,1.4,1.4,0,0,0,1.24-.72,1,1,0,0,0-.48-1.39,8.13,8.13,0,0,0-1.92-.62c-.4-.13-.8-.23-1.18-.39a2.31,2.31,0,0,1-1.61-2.43,2.61,2.61,0,0,1,1.78-2.43A4.12,4.12,0,0,1,139.37,48.78Z"/><path class="cls-1" d="M127.38,48.76a5.14,5.14,0,0,1,3.28,1.12c.32.25.44.46.08.75a.81.81,0,0,0-.09.1c-.61.69-.61.69-1.4.17a3.17,3.17,0,0,0-4.22.46,3.67,3.67,0,0,0,0,4.64,3.16,3.16,0,0,0,4.22.41,2.81,2.81,0,0,0,.48-.35c.21-.22.36-.21.59,0,.88.81.88.91-.14,1.63a4.92,4.92,0,0,1-7.51-5.61A4.83,4.83,0,0,1,127.38,48.76Z"/><path class="cls-1" d="M88.94,49a2,2,0,0,1,2.73,1.29,29.94,29.94,0,0,0,1.76,2.82c.43-.66.82-1.28,1.21-1.89A9.14,9.14,0,0,0,95.41,50a1.74,1.74,0,0,1,2.06-1.12c.52.06.48.18.24.52-1,1.58-2.09,3.17-3.15,4.75a1.65,1.65,0,0,0-.31,1c0,.9,0,1.79,0,2.69,0,.44-.15.54-.56.54-1.14,0-1.24,0-1.12-1.14a6.33,6.33,0,0,0-1.44-4.83c-.83-1-1.48-2.22-2.2-3.33A.26.26,0,0,1,88.94,49Z"/><path class="cls-1" d="M105.31,54.4c0-1.13,0-2.27,0-3.41,0-.39-.12-.53-.52-.52-.66,0-1.31,0-2,0-.39,0-.58-.09-.53-.51a2.33,2.33,0,0,0,0-.59c0-.32.09-.47.44-.46h6.82c.34,0,.49.1.45.45a1.7,1.7,0,0,0,0,.39c.09.55-.09.79-.7.72s-1.18,0-1.76,0-.56.13-.56.56c0,2.23,0,4.45,0,6.68,0,.55-.1.83-.71.73a1.81,1.81,0,0,0-.52,0c-.39,0-.48-.15-.48-.5C105.32,56.76,105.31,55.58,105.31,54.4Z"/><path class="cls-1" d="M77.88,53.66c0-1.38,0-2.75,0-4.13,0-.42.07-.62.57-.61,1.11,0,1.11,0,1.11,1.1,0,2.11,0,4.23,0,6.34,0,.43.12.56.55.55,1.29,0,2.58,0,3.86,0,.45,0,.62.11.6.58,0,1.15.12,1-1,1-1.68,0-3.36,0-5,0-.54,0-.66-.17-.65-.67C77.9,56.41,77.88,55,77.88,53.66Z"/><path class="cls-1" d="M117.09,53.71c0,1.4,0,2.79,0,4.19,0,.47-.13.59-.59.58-1.13,0-1.13,0-1.13-1.13,0-2.62,0-5.24,0-7.86,0-.49.13-.62.61-.61,1.1,0,1.1,0,1.1,1.1Z"/></g></g></svg>